<svg width="90" height="19" viewBox="0 0 90 19" fill="none" xmlns="http://www.w3.org/2000/svg">
<path d="M86.4535 5.1123L84.3857 10.1658C84.3267 10.2246 84.3267 10.3421 84.3267 10.4008L84.2677 10.5184L84.208 10.4008C84.208 10.3421 84.149 10.2246 84.149 10.1658L82.0804 5.1123H79.4219L82.9078 13.7503L81.4307 17.041H84.09L88.9948 5.1123H86.4535Z" fill="#CFCFCF"/>
<path d="M66.8351 5.58221C66.3623 5.22965 65.7713 4.99462 65.0623 4.93585C63.8803 4.81833 62.7574 5.22965 61.9892 5.99356V5.05336H59.5664V13.6914H61.9892V9.16667C61.9892 8.16778 62.1667 7.87394 62.344 7.63892C62.6395 7.16878 63.1712 6.93375 63.8213 6.93375C64.4713 6.93375 65.0623 7.22756 65.3575 7.6976C65.535 8.0502 65.594 8.5203 65.594 8.75532C65.594 9.51926 65.594 13.6914 65.594 13.6914H68.0169V8.46155C68.0169 7.11004 67.6624 6.16984 66.8351 5.58221Z" fill="#CFCFCF"/>
<path d="M55.017 5.17131C53.8349 4.75996 52.5349 4.81874 51.3531 5.34759C50.5849 5.70017 49.8759 6.28779 49.4621 7.05167C49.0486 7.6981 48.8711 8.52073 48.8711 9.40211C48.8711 10.2836 49.0486 11.1063 49.4621 11.7526C49.8759 12.399 50.4076 12.9866 51.1166 13.3392C51.8259 13.6917 52.6531 13.9268 53.4214 13.9268C53.8349 13.9268 54.2487 13.8681 54.6622 13.7506C55.017 13.633 55.3714 13.5155 55.7259 13.3392C56.4349 12.9279 57.026 12.399 57.3805 11.7526C57.7943 11.1063 57.9715 10.2836 57.9715 9.40211C57.9715 7.46301 56.8487 5.81767 55.017 5.17131ZM55.667 9.51969C55.6077 10.2836 55.3714 10.93 54.8987 11.3413C54.5442 11.6351 54.0122 11.8114 53.3622 11.8701C52.7121 11.8701 52.2394 11.6939 51.8259 11.3413C51.3531 10.93 51.1166 10.2836 51.0576 9.51969C50.9986 8.63824 51.3531 7.93312 52.0031 7.46301C52.3576 7.22796 52.8304 7.05167 53.3032 7.05167C53.8349 7.05167 54.2487 7.22796 54.6622 7.46301C55.3714 7.87436 55.7259 8.63824 55.667 9.51969Z" fill="#CFCFCF"/>
<path d="M46.0328 5.58194C45.56 5.22937 44.9689 4.99432 44.2599 4.93555C44.1417 4.93555 43.9644 4.93555 43.8462 4.93555C42.9007 4.93555 42.0734 5.34689 41.3644 6.16954L41.2461 6.34582H41.0096C40.8323 6.05202 40.5961 5.81697 40.3596 5.64069C39.8869 5.28811 39.2961 5.05308 38.5868 4.99432C37.464 4.8768 36.5778 5.22937 35.8095 6.05202V5.1706H33.3867V13.8085H35.8095V9.2839V9.16639C35.8095 8.22619 35.9278 7.99117 36.105 7.69733C36.4005 7.22725 36.9323 6.93345 37.5233 6.99222C38.114 6.99222 38.6461 7.28602 38.9416 7.75608C39.1779 8.10868 39.1779 8.52003 39.1779 8.93138V13.7498H41.6006V9.10764C41.6006 8.22619 41.7189 7.93242 41.8962 7.63857C42.1917 7.16851 42.7234 6.93345 43.3145 6.93345C43.9052 6.93345 44.3779 7.22725 44.6734 7.69733C44.8507 7.99117 44.91 8.34377 44.91 8.57878C44.91 8.69629 44.91 8.8138 44.91 8.87255V13.691H47.3328V8.40252C47.3328 7.93242 47.2735 7.46231 47.1556 7.05096C46.919 6.46337 46.5645 5.93452 46.0328 5.58194Z" fill="#CFCFCF"/>
<path d="M77.1138 11.1066C76.7591 11.4592 75.9317 12.1056 74.8093 12.1644C73.8639 12.2231 73.1545 11.9293 72.6228 11.4005C72.3868 11.1654 72.209 10.8129 72.091 10.4603H78.7687V10.4015C78.8277 10.049 78.8867 9.75516 78.8867 9.40256C78.8867 9.10879 78.8277 8.69744 78.709 8.16858C78.414 7.16964 77.8233 6.40572 77.0548 5.81809C76.1684 5.17173 75.341 4.99545 75.105 4.99545C73.3912 4.70165 71.4409 5.46553 70.4364 7.05209C69.7271 8.16858 69.7864 9.28505 69.7864 9.63765C69.7864 10.049 69.8454 11.3417 70.9091 12.517C72.15 13.8684 73.8639 13.9273 74.3956 13.986C76.7591 14.0448 78.355 12.5757 78.709 12.2819L77.1138 11.1066ZM72.9775 7.46347C73.3322 7.22838 73.7452 7.05209 74.2776 7.05209C74.8093 7.05209 75.223 7.22838 75.6367 7.46347C75.9907 7.75723 76.2864 8.10983 76.4634 8.52111H72.209C72.3278 8.10983 72.5638 7.69848 72.9775 7.46347Z" fill="#CFCFCF"/>
<path d="M16.9617 0C11.7615 0 7.625 4.1721 7.625 9.28435C7.625 14.4554 11.8206 18.5687 16.9617 18.5687C22.1028 18.5687 26.2984 14.3966 26.2984 9.28435C26.2984 4.1721 22.1028 0 16.9617 0ZM16.9617 12.6926C15.0708 12.6926 13.4752 11.106 13.4752 9.2256C13.4752 7.34525 15.0708 5.75867 16.9617 5.75867C18.8527 5.75867 20.4482 7.34525 20.4482 9.2256C20.3891 11.1647 18.8527 12.6926 16.9617 12.6926Z" fill="#CFCFCF"/>
<path d="M7.56391 2.64453V16.1597H4.25469L0 2.64453H7.56391Z" fill="#CFCFCF"/>
</svg>
